<svg xmlns="http://www.w3.org/2000/svg" xmlns:xlink="http://www.w3.org/1999/xlink" version="1.1" id="Layer_1" x="0px" y="0px" viewBox="0 0 1080 1080" style="enable-background:new 0 0 1080 1080;" xml:space="preserve">
<style xmlns="http://www.w3.org/2000/svg" type="text/css">
	.st0{fill:none;stroke:#D3D3D3;stroke-miterlimit:10;stroke-dasharray:11.8709,11.8709;}
	.st1{fill:none;stroke:#D3D3D3;stroke-miterlimit:10;stroke-dasharray:12.0407,12.0407;}
	.st2{fill:#1371B7;}
	.st3{fill:#CFF3FF;}
	.st4{fill:#EFEFEF;}
	.st5{fill:#DDDDDD;}
	.st6{fill:#BAEAF7;}
	.st7{fill:#FFD5B3;}
	.st8{fill:#F99926;}
	.st9{fill:#0A3E5B;}
	.st10{fill:#FFE3CA;}
	.st11{fill:#FFA42C;}
	.st12{fill:#FFB345;}
	.st13{fill:#F2F2F2;}
	.st14{fill:#B4E6FC;}
	.st15{fill:#2A94F4;}
	.st16{fill:#FFFFFF;}
	.st17{fill:#F4F4F4;}
	.st18{fill:#D1D1D1;}
	.st19{fill:#F7F7F7;}
	.st20{fill:#E5E5E5;}
	.st21{fill:#FFD72E;}
	.st22{fill:#1A87D8;}
	.st23{fill:#B0E1FF;}
	.st24{fill:#CCE9FF;}
	.st25{fill:none;stroke:#FFA42C;stroke-width:5;stroke-linecap:round;stroke-miterlimit:10;}
</style>
<g xmlns="http://www.w3.org/2000/svg">
	<circle class="st0" cx="856.1" cy="344.1" r="109.6"/>
</g>
<g xmlns="http://www.w3.org/2000/svg">
	<circle class="st1" cx="214.7" cy="281.6" r="134.1"/>
</g>
<g xmlns="http://www.w3.org/2000/svg">
	<path class="st2" d="M276.9,176c-26,11.4-51.8,25.2-69.9,46.9s-27.3,53-16.4,79.2c14.6,34.9,60.7,55.3,60.9,93.1   c0.2,27.1-24.9,47.8-50.1,57.7c-25.3,9.9-53.2,13.4-76.2,27.8c-34.7,21.7-50.9,63.8-57.6,104.2c-6.9,41.9-4.1,89.6,25.6,120   c36.9,37.8,97.8,33.5,150,25.5c69.6-10.8,139-23.4,208.3-36c151.9-27.7,303.9-55.4,455.8-83.1c16.3-3,33.2-6.2,46.5-16.2   c26.3-19.8,28.5-60.6,13.2-89.7c-15.3-29.1-43.5-48.9-71.6-66c-28.1-17.1-57.7-33.3-78.8-58.6c-21-25.3-31.5-62.7-15.6-91.5   c13.5-24.4,42.4-37.4,55.1-62.3c16.6-32.7-2.5-74.5-32.7-95.4C793.3,110.7,414.1,116,276.9,176z"/>
</g>
<g xmlns="http://www.w3.org/2000/svg">
	
		<rect x="683.2" y="571.6" transform="matrix(0.9642 -0.265 0.265 0.9642 -131.2713 202.8642)" class="st3" width="6.1" height="32.7"/>
	<polygon class="st4" points="684.8,571.3 678.9,573 679.7,568.3 680.2,566 681.7,567.8  "/>
	<polygon class="st5" points="681.7,567.8 679.7,568.3 680.2,566  "/>
</g>
<g xmlns="http://www.w3.org/2000/svg">
	
		<rect x="708.1" y="566.6" transform="matrix(0.9989 -4.777660e-02 4.777660e-02 0.9989 -27.0392 34.6425)" class="st3" width="6.1" height="32.7"/>
	<polygon class="st4" points="713.4,566.5 707.3,566.7 709.2,562.4 710.1,560.2 711.2,562.3  "/>
	<polygon class="st5" points="711.2,562.3 709.2,562.4 710.1,560.2  "/>
</g>
<g xmlns="http://www.w3.org/2000/svg">
	
		<rect x="719.2" y="563.1" transform="matrix(0.993 0.1184 -0.1184 0.993 73.7017 -81.3775)" class="st6" width="4.9" height="32.7"/>
	<polygon class="st4" points="726,563.5 721.1,562.9 723.2,558.9 724.3,556.8 724.9,559.1  "/>
</g>
<g xmlns="http://www.w3.org/2000/svg">
	
		<rect x="715.1" y="570.7" transform="matrix(0.9996 2.688237e-02 -2.688237e-02 0.9996 16.0411 -19.0778)" class="st3" width="4.9" height="32.7"/>
	<polygon class="st4" points="720.4,570.8 715.6,570.6 717.3,566.4 718.2,564.3 718.9,566.5  "/>
</g>
<g xmlns="http://www.w3.org/2000/svg">
	
		<rect x="686.6" y="570.7" transform="matrix(0.9996 2.688237e-02 -2.688237e-02 0.9996 16.0308 -18.3115)" class="st6" width="4.9" height="32.7"/>
	<polygon class="st4" points="691.9,570.8 687.1,570.6 688.8,566.4 689.7,564.3 690.4,566.5  "/>
</g>
<path xmlns="http://www.w3.org/2000/svg" class="st7" d="M476.6,576H502v23.8c0,17.3-14,31.2-31.2,31.2h-65.5l0.4-12C405.6,619,483.6,628,476.6,576z"/>
<path xmlns="http://www.w3.org/2000/svg" class="st8" d="M544,493.2c-50,0-72,32.8-73,82.8c15,0,66,0,66,0L544,493.2z"/>
<g xmlns="http://www.w3.org/2000/svg">
	<path class="st9" d="M573.8,405.3c12.4,9.8,14.6,19.8,15.7,24.2c1.1,4.4,8.8,42,9.9,43.1c-1.1,3.3-27.6,23.2-49.7,9.9   C535,473.7,561.4,407.6,573.8,405.3z"/>
	<path class="st7" d="M566.3,494.7l-2.8,2.8c-5.8,5.8-15.4,4.3-19.3-2.8l0,0v-23.2h22.1V494.7z"/>
	<path class="st9" d="M556.4,401.5c-14.4-8.2-57.5,0-46.4,71.6c11.1,11.7,34.3,9.4,34.3,9.4L556.4,401.5z"/>
	<ellipse class="st10" cx="551.9" cy="450.5" rx="28.7" ry="34.7"/>
	<path class="st9" d="M532,411.8c-3.1,13.6,21.9,42.8,51.3,45c5.2-8.2,6.5-17,6.1-24.8c-0.6-12.4-7.9-23.3-18.7-28.1l0,0   C570.7,403.9,537,389.9,532,411.8z"/>
	<path class="st11" d="M563.3,492.8c44.7,0,65.6,23.9,65.6,83.2h-20.6v84h-117c0,0-0.9-32.9-1.2-88c-0.2-29.5,5.9-62,53.1-79.2   c0.3-0.1,0.5,0,0.8,0H563.3z"/>
	
		<ellipse transform="matrix(0.4425 -0.8968 0.8968 0.4425 -86.9426 774.6875)" class="st10" cx="579.6" cy="457.3" rx="9" ry="7.7"/>
	<circle class="st12" cx="579.6" cy="467" r="4.4"/>
</g>
<path xmlns="http://www.w3.org/2000/svg" class="st13" d="M1024.1,1002.4H55.9c-6.3,0-11.4-5.1-11.4-11.4v-56.8c0-6.3,5.1-11.4,11.4-11.4h968.2  c6.3,0,11.4,5.1,11.4,11.4V991C1035.5,997.3,1030.4,1002.4,1024.1,1002.4z"/>
<g xmlns="http://www.w3.org/2000/svg">
	<rect x="191" y="649" class="st14" width="577" height="264"/>
	<rect x="177" y="631" class="st15" width="605" height="18"/>
	<rect x="134" y="904" class="st15" width="691" height="18"/>
	<rect x="191" y="649" class="st14" width="577" height="12"/>
</g>
<path xmlns="http://www.w3.org/2000/svg" class="st7" d="M597,576h25.4v23.8c0,17.3-14,31.2-31.2,31.2h-65.5l0.4-12C526,619,604,628,597,576z"/>
<path xmlns="http://www.w3.org/2000/svg" class="st10" d="M530.1,631c0,0-0.1-16-4.1-16s-25-1-26,3s-2.8,13-2.8,13H530.1z"/>
<path xmlns="http://www.w3.org/2000/svg" class="st10" d="M414.1,631c0,0-0.1-16-4.1-16s-25-1-26,3s-2.8,13-2.8,13H414.1z"/>
<polygon xmlns="http://www.w3.org/2000/svg" class="st16" points="569.7,492.8 545,552 544,493 "/>
<path xmlns="http://www.w3.org/2000/svg" class="st17" d="M544.1,492.8c-4.4,4,0,13,9.9,0C550.7,492.8,544.1,492.8,544.1,492.8z"/>
<path xmlns="http://www.w3.org/2000/svg" class="st17" d="M569.8,492.8c7.1,4,0,13-16,0C559.1,492.8,569.8,492.8,569.8,492.8z"/>
<g xmlns="http://www.w3.org/2000/svg">
	<rect x="369" y="624.9" class="st17" width="184" height="6.1"/>
	<rect x="313.2" y="568.2" class="st18" width="84.5" height="62.8"/>
	<polygon class="st19" points="466.1,571 462.4,575.1 239,571 235.3,396.1 241.7,391.9 466.1,391.9  "/>
	<rect x="235.3" y="396.1" class="st20" width="227.1" height="179.1"/>
	<rect x="290.2" y="622.9" class="st20" width="117.3" height="8.1"/>
</g>
<polygon xmlns="http://www.w3.org/2000/svg" class="st14" points="721,631 683.8,631 680.8,582 724.1,582 "/>
<path xmlns="http://www.w3.org/2000/svg" class="st21" d="M381.2,321.1c-7.9,5.6-17.1,9.5-27.3,11.2c-35.6,5.8-69.1-18.4-74.9-54c-5.8-35.6,18.4-69.1,54-74.9  c10.2-1.7,20.2-0.9,29.5,2c-19.6,14-30.8,38.3-26.6,63.7C339.9,294.5,358.1,314.1,381.2,321.1z"/>
<circle xmlns="http://www.w3.org/2000/svg" class="st21" cx="511.3" cy="220.4" r="9.3"/>
<circle xmlns="http://www.w3.org/2000/svg" class="st21" cx="671.3" cy="467" r="9.3"/>
<circle xmlns="http://www.w3.org/2000/svg" class="st21" cx="753.8" cy="409" r="3.7"/>
<circle xmlns="http://www.w3.org/2000/svg" class="st21" cx="440.2" cy="362.4" r="3.2"/>
<circle xmlns="http://www.w3.org/2000/svg" class="st21" cx="691.9" cy="252.6" r="3.4"/>
<g xmlns="http://www.w3.org/2000/svg">
	<g>
		<g>
			<path class="st22" d="M906.4,843c-8.6-40-35-75.9-70.8-95.9c19.1,36.1,42,70.2,68.2,101.6L906.4,843z"/>
		</g>
		<g>
			<path class="st15" d="M916,858c-34-47.6-51.1-107.1-47.5-165.5c22.1,53.9,38.7,110,49.7,167.3L916,858z"/>
		</g>
		<g>
			<path class="st22" d="M906.3,859.7c-1-29.3-2.1-58.8,2.5-87.7c4.6-28.9,15.2-57.6,34.9-79.3c3,60-11.5,120.7-41.3,172.8     L906.3,859.7z"/>
		</g>
		<g>
			<path class="st23" d="M907.7,862.3c-19.2-55.4-16-118.1,8.6-171.3c15.4,55.6,1.8,114.6-11.9,170.6L907.7,862.3z"/>
		</g>
		<g>
			<path class="st15" d="M910.2,841.8c5.3-48.6,37.7-93.3,82.2-113.4c-18.1,48.5-48.9,92.1-88.6,125.3L910.2,841.8z"/>
		</g>
	</g>
	<path class="st24" d="M956.1,833.3l-5.5,94.3c0,4.5-3.7,8.3-8.3,8.3h-65.4c-4.5,0-8.3-3.7-8.3-8.3l-1.2-21.3l-4.3-73   c0-4.5,3.7-8.3,8.3-8.3h76.4c3,0,5.6,1.6,7.1,4v0C955.7,830.2,956.1,831.7,956.1,833.3z"/>
	<g>
		<path class="st24" d="M956.1,833.3l-5.5,94.3c0,4.5-3.7,8.3-8.3,8.3h-65.4c-4.5,0-8.3-3.7-8.3-8.3l-1.2-21.3    c30.5-8.7,62-46.5,87.5-77.3C955.7,830.2,956.1,831.7,956.1,833.3z"/>
	</g>
</g>
<circle xmlns="http://www.w3.org/2000/svg" class="st15" cx="856.1" cy="344.1" r="88.1"/>
<circle xmlns="http://www.w3.org/2000/svg" class="st16" cx="856.1" cy="344.1" r="77.3"/>
<polyline xmlns="http://www.w3.org/2000/svg" class="st25" points="889.1,289.9 859.2,343.1 815.3,360.4 "/>
</svg>